<svg width="44" height="46" viewBox="0 0 44 46" fill="none" xmlns="http://www.w3.org/2000/svg">
<path d="M14.495 0.708182C14.6998 0.706873 14.6998 0.706873 14.9088 0.705538C15.0587 0.705934 15.2087 0.706331 15.3631 0.706739C15.521 0.706135 15.6788 0.70553 15.8414 0.704907C16.2745 0.703325 16.7076 0.703431 17.1407 0.703933C17.5021 0.704205 17.8636 0.70367 18.225 0.703137C19.0777 0.701899 19.9304 0.702038 20.7831 0.703041C21.663 0.704052 22.5428 0.702812 23.4227 0.700451C24.1779 0.6985 24.9332 0.697915 25.6884 0.698432C26.1396 0.698729 26.5907 0.698514 27.0419 0.697C27.545 0.695387 28.0479 0.696622 28.551 0.698137C28.7007 0.697286 28.8503 0.696434 29.0046 0.695557C29.1415 0.696423 29.2784 0.697289 29.4194 0.698182C29.5384 0.6982 29.6573 0.698219 29.7799 0.698238C29.8468 0.707682 29.9066 0.718703 29.9609 0.731568C30.4276 0.842156 30.7277 1.32245 30.6873 1.80038C30.6824 1.86899 30.6775 1.93761 30.6724 2.00831C30.6671 2.08186 30.6618 2.15541 30.6563 2.2312C30.5989 2.77471 30.5611 3.13218 30.5572 3.42751C30.5406 4.70585 31.572 5.73564 32.7982 6.09727C33.3532 6.27793 33.8204 6.5426 34.3079 6.80377C34.5103 6.9075 34.7131 7.01084 34.9163 7.11379C35.0194 7.16632 35.1225 7.21885 35.2288 7.27298C35.8003 7.56351 36.3734 7.85248 36.9463 8.14158C37.9227 8.63447 38.8987 9.12785 39.8718 9.62423C40.3929 9.88991 40.9155 10.1537 41.4408 10.415C41.5514 10.4703 41.662 10.5256 41.7759 10.5827C41.9874 10.6884 42.1993 10.7936 42.4118 10.8983C43.3218 11.3549 43.8576 12.2725 43.8118 13.2896C43.6859 16.0831 41.7386 19.1505 39.6757 21.2664C39.2574 21.6651 38.8018 22.0386 38.3413 22.4116C38.2531 22.4863 38.1649 22.561 38.074 22.638C34.5717 25.5674 29.448 27.389 24.1484 27.7848C23.4338 27.8156 22.7184 27.8148 22.0028 27.8124C21.8585 27.8121 21.8585 27.8121 21.7113 27.8119C20.2701 27.8078 18.884 27.7624 17.4766 27.5206C17.3851 27.5059 17.2937 27.4913 17.1995 27.4762C13.0048 26.7968 9.31973 25.2436 6.31635 23.0282C6.25527 22.9834 6.19419 22.9387 6.13125 22.8926C2.60183 20.2804 0.606194 16.6974 0.251022 13.0744C0.244709 13.0119 0.238395 12.9495 0.23189 12.8851C0.144091 11.8929 0.891878 11.1742 1.79127 10.746C1.82621 10.7294 1.86121 10.7128 1.89624 10.6961C2.10388 10.5951 2.31143 10.4941 2.51889 10.3929C2.62542 10.3413 2.73194 10.2896 2.8417 10.2363C3.35511 9.9852 3.8615 9.72693 4.36787 9.46838C4.57162 9.36458 4.77538 9.26078 4.97914 9.15698C5.08004 9.10553 5.18093 9.05408 5.28489 9.00107C6.542 8.36016 7.79929 7.71935 9.06142 7.08366C9.29846 6.96322 9.53405 6.84125 9.76811 6.71777C10.3268 6.42614 10.8518 6.17735 11.4894 5.98691C12.6877 5.59602 13.3628 4.43814 13.3214 3.17835C13.3085 2.78643 13.2743 2.39638 13.2436 2.01829C13.2342 1.88618 13.2289 1.76466 13.2361 1.64949C13.2734 1.05336 13.8977 0.709257 14.495 0.708182ZM18.1083 2.32788C16.6727 2.32788 15.4949 3.45356 15.4429 4.88826C15.4245 5.3953 15.2846 5.93858 14.848 6.1971C14.701 6.28416 14.5341 6.36378 14.3378 6.45693C14.1604 6.5432 13.9832 6.62957 13.8061 6.71603C13.6653 6.78435 13.6653 6.78435 13.5217 6.85405C13.0259 7.09681 12.5373 7.34687 12.0481 7.59655C11.841 7.70196 11.634 7.80737 11.4269 7.91276C11.3237 7.96532 11.2205 8.01788 11.1142 8.07203C9.7391 8.77242 8.36267 9.47138 6.98354 10.1676C6.51849 10.4024 6.05349 10.6373 5.58851 10.8723C5.47307 10.9306 5.35763 10.9889 5.23869 11.0489C4.90529 11.2174 4.5721 11.3862 4.23898 11.5549C4.13913 11.6053 4.03929 11.6558 3.93642 11.7077C3.75525 11.7996 3.57462 11.8921 3.39469 11.9853C3.1966 12.0878 2.99632 12.188 2.79562 12.2878C2.49958 12.464 2.48744 12.8427 2.52234 13.1854C2.80491 15.9601 4.29081 18.4738 6.5599 20.6811C6.96358 21.0738 7.62068 21.0746 7.92698 20.602C7.97854 20.523 8.03009 20.4441 8.08321 20.3627C8.13814 20.2776 8.19308 20.1925 8.24968 20.1048C8.36906 19.9217 8.48847 19.7387 8.60791 19.5556C8.66976 19.4605 8.7316 19.3654 8.79532 19.2675C9.33813 18.4344 9.88861 17.6039 10.4408 16.774C10.4911 16.6983 10.5414 16.6226 10.5932 16.5446C10.726 16.3455 10.8598 16.1468 10.9942 15.9482C11.0319 15.8917 11.0695 15.8352 11.1083 15.7769C11.3057 15.488 11.463 15.2616 11.7991 15.1163C11.9692 15.0428 12.1777 15.0164 12.3625 15.0293C12.8019 15.0599 13.2421 15.3423 13.2639 15.7822C13.2644 15.7914 13.2647 15.8007 13.2649 15.81C13.27 16.0422 13.1897 16.2685 13.0694 16.4673C12.9955 16.5893 12.9128 16.7084 12.8266 16.8294C12.7844 16.8914 12.7423 16.9534 12.6988 17.0173C12.562 17.2176 12.4226 17.417 12.2831 17.6164C12.188 17.7549 12.0931 17.8935 11.9984 18.0322C11.8101 18.3079 11.6209 18.5832 11.431 18.8583C10.9281 19.5885 10.4485 20.3269 9.96698 21.0646C9.84226 21.2542 9.71525 21.443 9.58737 21.6315C9.51872 21.7345 9.45007 21.8375 9.37934 21.9436C9.35646 21.9773 9.33358 22.0111 9.31058 22.045C9.24154 22.1468 9.16382 22.2674 9.13163 22.3861C9.05851 22.6558 9.34089 22.851 9.57265 23.0071C11.7472 24.4718 14.9326 25.4065 17.7419 25.8745C17.8194 25.8874 17.8969 25.9004 17.9767 25.9138C18.606 26.0098 19.2409 26.0625 19.8792 26.1157C19.9748 26.1238 20.0705 26.1319 20.1691 26.1402C20.3086 26.152 20.4481 26.1637 20.5876 26.1754C20.7413 26.1883 20.8732 26.067 20.8733 25.9127C20.8751 23.614 20.8803 21.3152 20.8892 19.0164C20.8934 17.9048 20.8965 16.7931 20.8969 15.6814C20.8972 14.7127 20.8997 13.744 20.9047 12.7753C20.9073 12.2622 20.9089 11.7491 20.9079 11.236C20.9069 10.7533 20.9089 10.2706 20.9129 9.78794C20.9139 9.61054 20.9139 9.43313 20.9128 9.25572C20.9114 9.01393 20.9137 8.7723 20.9169 8.53052C20.9156 8.45992 20.9143 8.38931 20.913 8.31657C20.9165 8.17803 20.9235 8.0706 20.9524 7.97497C21.0544 7.63813 21.4378 7.46404 21.7872 7.42125C21.8942 7.40814 22.0044 7.40768 22.1351 7.41741C22.264 7.427 22.4164 7.4704 22.5341 7.52378C22.8348 7.66022 22.9917 7.96415 23.0093 8.29393C23.0134 8.36995 23.0144 8.44778 23.0129 8.53052C23.0139 8.606 23.0149 8.68148 23.016 8.75925C23.0186 9.01261 23.017 9.26586 23.0154 9.51922C23.0164 9.70065 23.0177 9.88208 23.0192 10.0635C23.0226 10.5565 23.0223 11.0495 23.0214 11.5425C23.021 12.0575 23.024 12.5726 23.0267 13.0876C23.0312 14.0631 23.0327 15.0386 23.0331 16.0141C23.0336 17.1246 23.0376 18.2351 23.0419 19.3456C23.0494 21.2977 23.0537 23.2497 23.0558 25.2018C23.0564 25.7388 23.5155 26.1609 24.0507 26.1157C24.144 26.1079 24.2374 26.1001 24.3336 26.0921C24.9584 26.0392 25.5745 25.9773 26.1879 25.8745C26.2767 25.8596 26.3656 25.8447 26.4571 25.8294C29.2147 25.3453 31.6321 24.4628 33.8484 23.2421C34.4411 22.9157 34.7182 22.2267 34.3391 21.6663C34.3026 21.6118 34.266 21.5574 34.2283 21.5013C34.1089 21.3237 33.9885 21.1464 33.8681 20.9692C33.7845 20.845 33.7009 20.7209 33.6175 20.5967C33.4914 20.4092 33.3653 20.2217 33.2389 20.0342C32.8907 19.5179 32.548 18.9998 32.2077 18.4807C31.7079 17.7199 31.2042 16.9604 30.699 16.2015C30.0775 15.2678 29.4594 14.333 28.8438 13.3972C28.4952 12.8672 28.1453 12.3377 27.7952 11.8082C27.7355 11.7177 27.6757 11.6272 27.6142 11.534C27.2964 11.053 26.9775 10.5723 26.657 10.0922C26.5912 9.9933 26.5253 9.89438 26.4575 9.79247C26.3319 9.60382 26.206 9.41528 26.0796 9.22688C25.5106 8.37093 25.2805 8.02482 25.2375 7.77305C25.1779 7.42285 25.4666 7.07568 25.8098 6.98396C25.8149 6.98261 25.82 6.98127 25.8251 6.97994C25.9895 6.93749 26.1907 6.91596 26.3604 6.92012C26.8566 6.93229 27.2503 7.27375 27.5123 7.6953C27.5735 7.78882 27.5735 7.78882 27.6359 7.88423C27.7235 8.01811 27.8103 8.15226 27.8964 8.28663C28.0734 8.56085 28.2574 8.83245 28.4416 9.10417C28.6826 9.45992 28.921 9.81657 29.1599 10.1731C29.2104 10.2484 29.2609 10.3236 29.3129 10.4012C30.0525 11.5044 30.7868 12.6093 31.5131 13.7172C31.8041 14.1603 32.097 14.6028 32.3897 15.0453C32.4503 15.137 32.5109 15.2286 32.5733 15.323C32.6959 15.5084 32.8186 15.6939 32.9412 15.8793C33.124 16.1558 33.3068 16.4322 33.4895 16.7087C33.5496 16.7995 33.6096 16.8904 33.6715 16.984C33.7919 17.1662 33.9124 17.3484 34.0328 17.5306C34.3476 18.0072 34.6629 18.4835 34.9788 18.9597C35.0769 19.1076 35.0769 19.1076 35.1769 19.2585C35.3012 19.4461 35.4257 19.6336 35.5503 19.8211C36.0917 20.6384 37.2141 20.8795 37.9198 20.199C39.8986 18.2907 41.0859 15.8245 41.374 13.5148C41.3952 13.4219 41.4165 13.3289 41.4384 13.233C41.5163 12.721 41.1728 12.2679 40.7106 12.0341C40.5418 11.9487 40.3648 11.8691 40.1826 11.7871C39.7592 11.5915 39.3517 11.3798 38.9412 11.1702C38.5781 10.9849 38.2135 10.8013 37.8485 10.618C37.2025 10.2933 36.5584 9.96664 35.9152 9.63905C34.9303 9.13783 33.9433 8.63883 32.9557 8.14046C32.0591 7.68783 31.1642 7.23346 30.2706 6.77762C30.1779 6.73038 30.0852 6.68315 29.9896 6.63448C29.9031 6.59025 29.8166 6.54603 29.7275 6.50046C29.5115 6.39264 29.2919 6.29177 29.0694 6.1913C28.6234 5.95667 28.506 5.41377 28.4877 4.91018C28.4357 3.47549 27.2572 2.32788 25.8216 2.32788C23.2692 2.32788 20.7074 2.32788 18.1083 2.32788Z" fill="#1B4A9A"/>
<path d="M20.6981 30.3589C21.3515 29.632 22.5637 29.6429 23.2357 30.3526C23.4266 30.5859 23.6069 30.8221 23.7844 31.0608C23.8856 31.1942 23.8856 31.1942 23.9889 31.3303C24.1321 31.5197 24.2746 31.7094 24.4165 31.8993C24.6297 32.1843 24.8458 32.468 25.0624 32.7517C29.964 39.2116 29.964 39.2116 29.0006 42.0551C28.3055 43.6126 27.0534 44.6772 25.0671 45.4251C23.4658 45.9673 21.4588 46.0558 19.7586 45.6997C19.5208 45.635 19.2854 45.5654 19.0535 45.4905C18.9398 45.4541 18.8261 45.4178 18.709 45.3804C16.9128 44.7365 15.7692 43.6623 15.0508 42.328C13.78 39.4805 16.2941 36.357 17.9992 33.8879C18.5025 33.1785 19.0509 32.4879 19.6034 31.7982C19.7728 31.5836 19.9363 31.3672 20.0974 31.1493C20.1456 31.0845 20.1939 31.0197 20.2437 30.953C20.3307 30.8358 20.4166 30.7182 20.5012 30.6C20.5637 30.5167 20.6289 30.4359 20.6981 30.3589ZM21.9631 32.2775C21.8877 32.2775 21.8133 32.3125 21.764 32.3694C19.1263 35.4177 18.3293 36.3523 17.8168 38.3089C17.254 40.4579 17.5854 43.0845 19.6643 43.8674C21.1224 44.3253 22.4028 44.3643 23.9057 43.993C25.1392 43.5968 26.0434 42.926 26.5745 42.0276C27.4325 40.4072 26.5404 38.8106 25.6343 37.3057C25.1595 36.5419 24.6484 35.791 24.1332 35.0412C24.0872 34.9743 24.0412 34.9073 23.9939 34.8383C23.4177 34.0018 22.8121 33.1818 22.1639 32.3741C22.1148 32.313 22.0415 32.2775 21.9631 32.2775Z" fill="#1B4A9A"/>
<path d="M17.7463 6.83523C18.0538 6.85712 18.3977 6.95566 18.6022 7.18638C18.7756 7.38213 18.8327 7.64896 18.7583 7.8997C18.7276 8.0034 18.6725 8.10538 18.5896 8.23934C18.533 8.33138 18.4763 8.42341 18.4179 8.51823C18.3471 8.62773 18.2759 8.73708 18.2044 8.84631C18.1419 8.94202 18.1419 8.94202 18.0782 9.03967C17.7293 9.57187 17.372 10.101 17.0141 10.6301C16.9081 10.7873 16.8022 10.9445 16.6964 11.1018C16.4402 11.482 16.1827 11.8617 15.9247 12.2412C15.7811 12.4537 15.6391 12.6667 15.4976 12.8799C15.4112 13.0085 15.3249 13.1371 15.2385 13.2658C15.2001 13.3245 15.1616 13.3832 15.1219 13.4437C15.0709 13.5191 15.0258 13.5838 14.9801 13.6415C14.7024 13.9922 14.2139 14.104 13.7681 14.0662C13.7334 14.0633 13.6991 14.0593 13.6649 14.0541C13.2807 13.9954 12.8908 13.73 12.8413 13.3446C12.8025 13.0434 12.9284 12.7557 13.0888 12.4979C13.1367 12.4209 13.1879 12.3441 13.2446 12.2648C13.2841 12.2067 13.3235 12.1487 13.3642 12.0888C13.4924 11.901 13.6231 11.7143 13.754 11.5274C13.8432 11.3974 13.9323 11.2674 14.0211 11.1372C14.1989 10.877 14.3775 10.6171 14.5568 10.3575C14.9 9.8588 15.2297 9.35561 15.5584 8.85182C15.7519 8.55597 15.9466 8.26058 16.1422 7.96545C16.1944 7.88501 16.2467 7.80457 16.3005 7.72169C16.3793 7.60288 16.3793 7.60288 16.4597 7.48166C16.5066 7.41014 16.5534 7.33862 16.6018 7.26493C16.8856 6.91654 17.2845 6.80235 17.7463 6.83523Z" fill="#1B4A9A"/>
</svg>
