<svg width="50" height="50" viewBox="0 0 50 50" fill="none" xmlns="http://www.w3.org/2000/svg">
<path d="M14.5833 27.0833C13.4999 25.2155 12.3437 21.301 16.6749 16.4124C17.9385 15.2239 19.5979 13.6624 22.6291 12.8468C25.877 11.3197 27.501 8.87492 25.3364 5.20825C26.9604 6.227 30.2083 10.0968 30.2083 17.4301" stroke="#1B4A9A" stroke-width="2" stroke-linecap="round" stroke-linejoin="round"/>
<path d="M16.93 29.0938C8.33317 24.5521 4.69775 31.4531 4.1665 35.1615C8.33317 35.1615 13.2071 38.1938 15.3342 41.2271C19.1634 46.0813 25.0842 44.9354 27.5655 43.7552C35.2238 39.7104 37.8467 40.0469 38.2009 40.7219C38.628 43.9573 39.7967 44.7667 40.329 44.7667C44.1582 45.1708 45.4696 40.5531 45.6467 38.1938C46.4978 28.4865 44.229 28.0823 42.9884 29.0938C37.8821 35.1604 34.8332 36.3406 33.9467 36.1719C30.1186 35.3625 30.579 33.8125 31.2884 33.1375C38.0957 27.476 38.0248 14.9375 37.1384 9.375C34.5863 15.4427 30.4019 17.9698 28.629 18.476C17.9936 21.3073 16.3978 26.7344 16.93 29.0938Z" stroke="#1B4A9A" stroke-width="2" stroke-linecap="round" stroke-linejoin="round"/>
<path d="M12.4998 34.8041C13.6504 34.8041 14.5832 33.8714 14.5832 32.7208C14.5832 31.5702 13.6504 30.6375 12.4998 30.6375C11.3492 30.6375 10.4165 31.5702 10.4165 32.7208C10.4165 33.8714 11.3492 34.8041 12.4998 34.8041Z" fill="#1B4A9A"/>
</svg>
