<svg width="30" height="30" viewBox="0 0 30 30" fill="none" xmlns="http://www.w3.org/2000/svg">
<path d="M27 21.6667V9.66671H8.33333V21.6667H27ZM27 3.00004C27.7072 3.00004 28.3855 3.28099 28.8856 3.78109C29.3857 4.28119 29.6667 4.95946 29.6667 5.66671V21.6667C29.6667 22.374 29.3857 23.0522 28.8856 23.5523C28.3855 24.0524 27.7072 24.3334 27 24.3334H8.33333C7.62608 24.3334 6.94781 24.0524 6.44771 23.5523C5.94761 23.0522 5.66666 22.374 5.66666 21.6667V5.66671C5.66666 4.95946 5.94761 4.28119 6.44771 3.78109C6.94781 3.28099 7.62608 3.00004 8.33333 3.00004H9.66666V0.333374H12.3333V3.00004H23V0.333374H25.6667V3.00004H27ZM2.99999 27H21.6667V29.6667H2.99999C2.29275 29.6667 1.61447 29.3858 1.11438 28.8857C0.61428 28.3856 0.333328 27.7073 0.333328 27V11H2.99999V27ZM24.3333 19H19V13.6667H24.3333V19Z" fill="#2E3C56"/>
</svg>
