<svg width="25" height="25" viewBox="0 0 25 25" fill="none" xmlns="http://www.w3.org/2000/svg">
<path d="M24.5 13V22.2227C24.4999 22.8266 24.2601 23.4059 23.833 23.833C23.4059 24.2601 22.8266 24.4999 22.2227 24.5H2.77734C2.1734 24.4999 1.59406 24.2601 1.16699 23.833C0.739928 23.4059 0.500115 22.8266 0.5 22.2227V13H24.5ZM18.0557 0.5C18.2914 0.500029 18.5179 0.594069 18.6846 0.760742C18.8509 0.927346 18.9443 1.1532 18.9443 1.38867V3.27734H22.2227C22.8266 3.27746 23.4059 3.51825 23.833 3.94531C24.26 4.37245 24.5 4.95169 24.5 5.55566V9.22266H0.5V5.55566C0.5 4.95169 0.739996 4.37245 1.16699 3.94531C1.59406 3.51825 2.1734 3.27746 2.77734 3.27734H6.05566V1.38867C6.05572 1.15321 6.14905 0.927349 6.31543 0.760742C6.4821 0.594069 6.70863 0.500029 6.94434 0.5C7.18008 0.5 7.40654 0.594043 7.57324 0.760742C7.73969 0.927359 7.83295 1.15316 7.83301 1.38867V3.27734H17.167V1.38867C17.167 1.15316 17.2603 0.92736 17.4268 0.760742C17.5935 0.594043 17.8199 0.5 18.0557 0.5Z" fill="white" stroke="#9395A4"/>
</svg>
