<svg width="42" height="34" viewBox="0 0 42 34" fill="none" xmlns="http://www.w3.org/2000/svg">
<mask id="mask0_605_935" style="mask-type:luminance" maskUnits="userSpaceOnUse" x="0" y="0" width="42" height="34">
<path d="M25.1665 0.333496H16.8332C8.97695 0.333496 5.04779 0.333496 2.6082 2.77516C0.84987 4.53141 0.358203 7.06058 0.220703 11.271H41.779C41.6415 7.06058 41.1499 4.53141 39.3915 2.77516C36.9519 0.333496 33.0228 0.333496 25.1665 0.333496ZM16.8332 33.6668H25.1665C33.0228 33.6668 36.9519 33.6668 39.3915 31.2252C41.8311 28.7835 41.8332 24.8564 41.8332 17.0002C41.8332 16.0807 41.8318 15.2127 41.829 14.396H0.170703C0.166537 15.2127 0.165148 16.0807 0.166536 17.0002C0.166536 24.8564 0.166536 28.7856 2.6082 31.2252C5.04987 33.6647 8.97695 33.6668 16.8332 33.6668Z" fill="white"/>
<path fill-rule="evenodd" clip-rule="evenodd" d="M6.9375 25.3335C6.9375 24.9191 7.10212 24.5217 7.39515 24.2286C7.68817 23.9356 8.0856 23.771 8.5 23.771H16.8333C17.2477 23.771 17.6452 23.9356 17.9382 24.2286C18.2312 24.5217 18.3958 24.9191 18.3958 25.3335C18.3958 25.7479 18.2312 26.1453 17.9382 26.4384C17.6452 26.7314 17.2477 26.896 16.8333 26.896H8.5C8.0856 26.896 7.68817 26.7314 7.39515 26.4384C7.10212 26.1453 6.9375 25.7479 6.9375 25.3335ZM20.4792 25.3335C20.4792 24.9191 20.6438 24.5217 20.9368 24.2286C21.2298 23.9356 21.6273 23.771 22.0417 23.771H25.1667C25.5811 23.771 25.9785 23.9356 26.2715 24.2286C26.5645 24.5217 26.7292 24.9191 26.7292 25.3335C26.7292 25.7479 26.5645 26.1453 26.2715 26.4384C25.9785 26.7314 25.5811 26.896 25.1667 26.896H22.0417C21.6273 26.896 21.2298 26.7314 20.9368 26.4384C20.6438 26.1453 20.4792 25.7479 20.4792 25.3335Z" fill="black"/>
</mask>
<g mask="url(#mask0_605_935)">
<path d="M-4 -8H46V42H-4V-8Z" fill="#1B4A9A"/>
</g>
</svg>
