<svg width="24" height="24" viewBox="0 0 24 24" fill="none" xmlns="http://www.w3.org/2000/svg">
<path d="M12.0723 0.5C14.0557 0.516138 16.001 1.0463 17.7188 2.03809C19.4499 3.03766 20.8899 4.47209 21.8965 6.19922C22.9031 7.92657 23.4419 9.88754 23.458 11.8867C23.4741 13.8857 22.9677 15.8544 21.9893 17.5977C21.0108 19.341 19.5938 20.7987 17.8789 21.8262C16.1639 22.8537 14.2098 23.4156 12.2109 23.4561C10.2122 23.4965 8.23752 23.0139 6.48242 22.0566C4.72731 21.0994 3.25236 19.7004 2.2041 17.998C1.22134 16.402 0.645881 14.5912 0.524414 12.7246L0.505859 12.3506L0.5 11.9863L0.505859 11.6074C0.57014 9.62517 1.14666 7.69301 2.17969 6C3.21291 4.30687 4.66775 2.91004 6.40137 1.94629C8.13499 0.982533 10.0888 0.483882 12.0723 0.5ZM13.6768 5.97461L13.6758 5.95996L13.668 5.81934L13.667 5.80469L13.665 5.79102L13.6396 5.6377C13.5648 5.28437 13.3793 4.96251 13.1074 4.7207C12.7967 4.44441 12.3953 4.29211 11.9795 4.29199C11.5636 4.29205 11.1614 4.44435 10.8506 4.7207C10.54 4.99703 10.3416 5.37813 10.293 5.79102L10.291 5.80469V5.81934L10.2822 5.95996L10.2812 5.97461V11.9961L10.2822 12.0137L10.293 12.1699L10.2939 12.1855L10.2959 12.2012C10.3346 12.4957 10.4505 12.7747 10.6309 13.0107L10.6406 13.0234L10.6504 13.0352L10.7549 13.1553L10.7783 13.1807L14.3721 16.7744L14.3975 16.7979L14.5098 16.8955L14.5205 16.9053L14.5322 16.9141C14.83 17.1451 15.1964 17.2705 15.5732 17.2705C15.9499 17.2704 16.3156 17.1449 16.6133 16.9141L16.626 16.9043L16.6377 16.8936L16.751 16.7949L16.7744 16.7744L16.7949 16.751L16.8945 16.6377L16.9043 16.626L16.9141 16.6133C17.145 16.3156 17.2704 15.9499 17.2705 15.5732C17.2705 15.1964 17.1451 14.83 16.9141 14.5322L16.9043 14.5195L16.8945 14.5078L16.7949 14.3945L16.7842 14.3838L16.7734 14.3721L13.6768 11.2744V5.97461Z" fill="white" stroke="#9395A4"/>
</svg>
