<svg width="34" height="42" viewBox="0 0 34 42" fill="none" xmlns="http://www.w3.org/2000/svg">
<path d="M10.7499 23.0832H23.2499C23.8402 23.0832 24.3353 22.8832 24.7353 22.4832C25.1353 22.0832 25.3346 21.5887 25.3333 20.9998C25.3319 20.4109 25.1319 19.9165 24.7333 19.5165C24.3346 19.1165 23.8402 18.9165 23.2499 18.9165H10.7499C10.1596 18.9165 9.6652 19.1165 9.26659 19.5165C8.86798 19.9165 8.66797 20.4109 8.66659 20.9998C8.6652 21.5887 8.8652 22.0839 9.26659 22.4853C9.66798 22.8866 10.1624 23.0859 10.7499 23.0832ZM10.7499 29.3332H23.2499C23.8402 29.3332 24.3353 29.1332 24.7353 28.7332C25.1353 28.3332 25.3346 27.8387 25.3333 27.2498C25.3319 26.6609 25.1319 26.1665 24.7333 25.7665C24.3346 25.3665 23.8402 25.1665 23.2499 25.1665H10.7499C10.1596 25.1665 9.6652 25.3665 9.26659 25.7665C8.86798 26.1665 8.66797 26.6609 8.66659 27.2498C8.6652 27.8387 8.8652 28.3339 9.26659 28.7353C9.66798 29.1366 10.1624 29.3359 10.7499 29.3332ZM10.7499 35.5832H16.9999C17.5902 35.5832 18.0853 35.3832 18.4853 34.9832C18.8853 34.5832 19.0846 34.0887 19.0833 33.4998C19.0819 32.9109 18.8819 32.4165 18.4833 32.0165C18.0846 31.6165 17.5902 31.4165 16.9999 31.4165H10.7499C10.1596 31.4165 9.6652 31.6165 9.26659 32.0165C8.86798 32.4165 8.66797 32.9109 8.66659 33.4998C8.6652 34.0887 8.8652 34.5839 9.26659 34.9853C9.66798 35.3866 10.1624 35.5859 10.7499 35.5832ZM4.49992 41.8332C3.35409 41.8332 2.37353 41.4255 1.55825 40.6103C0.742974 39.795 0.334641 38.8137 0.333252 37.6665V4.33317C0.333252 3.18734 0.741585 2.20678 1.55825 1.3915C2.37492 0.576226 3.35547 0.167893 4.49992 0.166504H19.4478C20.0034 0.166504 20.5333 0.270671 21.0374 0.479004C21.5416 0.687337 21.9839 0.982476 22.3645 1.36442L32.4687 11.4686C32.8506 11.8505 33.1458 12.2936 33.3541 12.7978C33.5624 13.3019 33.6666 13.8311 33.6666 14.3853V37.6665C33.6666 38.8123 33.2589 39.7936 32.4437 40.6103C31.6284 41.4269 30.6471 41.8346 29.4999 41.8332H4.49992ZM19.0833 12.6665C19.0833 13.2568 19.2833 13.7519 19.6833 14.1519C20.0833 14.5519 20.5777 14.7512 21.1666 14.7498H29.4999L19.0833 4.33317V12.6665Z" fill="#1B4A9A"/>
</svg>
