<svg width="39" height="34" viewBox="0 0 39 34" fill="none" xmlns="http://www.w3.org/2000/svg">
<path d="M19.5768 11.1826C19.4642 11.1826 19.4079 11.3189 19.4876 11.3984L24.7673 16.6614C24.8426 16.7364 24.971 16.6831 24.971 16.5768C24.971 15.1462 24.4027 13.7741 23.3911 12.7625C22.3795 11.7509 21.0075 11.1826 19.5768 11.1826ZM10.6851 15.2916C10.895 13.9265 12.5533 13.6348 13.5299 14.6115C14.0249 15.1065 14.1909 15.8229 14.1829 16.523C14.1827 16.5409 14.1826 16.5588 14.1826 16.5768C14.1826 18.0074 14.7509 19.3795 15.7626 20.3911C16.7742 21.4027 18.1462 21.971 19.5768 21.971C19.5947 21.971 19.6126 21.9709 19.6305 21.9707C20.3305 21.9621 21.0471 22.1287 21.5422 22.6237C22.5188 23.6004 22.2271 25.2586 20.862 25.4686C20.4428 25.533 20.0141 25.5671 19.5768 25.5671C17.1924 25.5671 14.9057 24.6199 13.2197 22.9339C11.5337 21.2479 10.5865 18.9612 10.5865 16.5768C10.5865 16.1395 10.6206 15.7108 10.6851 15.2916ZM1.59616 2.67774L5.69575 6.77733C6.12631 7.20789 6.08288 7.91647 5.62458 8.31737C3.55822 10.1249 1.84226 12.3044 0.594884 14.7865C0.0290551 15.9124 0.0319425 17.2403 0.600084 18.365C4.10393 25.3016 11.2817 30.0623 19.5768 30.0623C21.981 30.0623 24.2915 29.6609 26.439 28.9273C27.0608 28.715 27.7555 28.848 28.2255 29.3071L32.3341 33.4157C32.9647 34.0463 33.9871 34.0463 34.6177 33.4157C35.2482 32.7851 35.2482 31.7627 34.6177 31.1321L3.87971 0.394196M19.5768 7.58646C21.9612 7.58646 24.2479 8.53365 25.934 10.2197C27.62 11.9057 28.5672 14.1924 28.5672 16.5768C28.5672 16.6485 28.5663 16.7201 28.5644 16.7916C28.5164 18.694 28.796 20.7255 30.1417 22.0711C31.8671 23.7965 34.6741 23.9503 36.1951 22.0423C37.0993 20.9083 37.8919 19.6774 38.5521 18.3708C39.1221 17.2428 39.1209 15.9109 38.5508 14.783C35.0459 7.84941 27.8698 3.0913 19.5768 3.0913C18.4124 3.0913 17.2711 3.18748 16.1564 3.37094C14.3719 3.66465 13.8718 5.82348 15.1565 7.09633C15.844 7.77748 16.862 7.96037 17.8101 7.76633C18.3795 7.6498 18.9684 7.58646 19.5768 7.58646Z" fill="#828282"/>
</svg>
