<svg width="35" height="35" viewBox="0 0 35 35" fill="none" xmlns="http://www.w3.org/2000/svg">
<path d="M25.0046 22H23.4246L22.8646 21.46C24.8925 19.1081 26.007 16.1054 26.0046 13C26.0046 10.4288 25.2422 7.91543 23.8138 5.77759C22.3853 3.63975 20.355 1.97351 17.9795 0.989572C15.6041 0.00563276 12.9902 -0.251811 10.4685 0.249797C7.94672 0.751405 5.63034 1.98953 3.81226 3.80762C1.99417 5.6257 0.756044 7.94208 0.254436 10.4638C-0.247172 12.9856 0.0102714 15.5995 0.994211 17.9749C1.97815 20.3503 3.64439 22.3807 5.78223 23.8091C7.92007 25.2376 10.4335 26 13.0046 26C16.2246 26 19.1846 24.82 21.4646 22.86L22.0046 23.42V25L32.0046 34.98L34.9847 32L25.0046 22ZM13.0046 22C8.02465 22 4.00465 17.98 4.00465 13C4.00465 8.02001 8.02465 4.00001 13.0046 4.00001C17.9846 4.00001 22.0046 8.02001 22.0046 13C22.0046 17.98 17.9846 22 13.0046 22Z" fill="#9FA2A4"/>
</svg>
