<svg width="27" height="32" viewBox="0 0 27 32" fill="none" xmlns="http://www.w3.org/2000/svg">
<path d="M26.625 25.7083V27.1666H0.375V25.7083L3.29167 22.7916V14.0416C3.29167 9.52079 6.25208 5.53954 10.5833 4.25621V3.83329C10.5833 3.05974 10.8906 2.31788 11.4376 1.7709C11.9846 1.22392 12.7265 0.916626 13.5 0.916626C14.2735 0.916626 15.0154 1.22392 15.5624 1.7709C16.1094 2.31788 16.4167 3.05974 16.4167 3.83329V4.25621C20.7479 5.53954 23.7083 9.52079 23.7083 14.0416V22.7916L26.625 25.7083ZM16.4167 28.625C16.4167 29.3985 16.1094 30.1404 15.5624 30.6874C15.0154 31.2343 14.2735 31.5416 13.5 31.5416C12.7265 31.5416 11.9846 31.2343 11.4376 30.6874C10.8906 30.1404 10.5833 29.3985 10.5833 28.625" fill="white"/>
</svg>
