<svg width="40" height="34" viewBox="0 0 40 34" fill="none" xmlns="http://www.w3.org/2000/svg">
<path d="M19.78 10.268C18.3493 10.268 16.9772 10.9541 15.9655 12.1753C14.9538 13.3966 14.3855 15.0529 14.3855 16.78C14.3855 18.5071 14.9538 20.1634 15.9655 21.3847C16.9772 22.6059 18.3493 23.292 19.78 23.292C21.2107 23.292 22.5828 22.6059 23.5945 21.3847C24.6062 20.1634 25.1745 18.5071 25.1745 16.78C25.1745 15.0529 24.6062 13.3966 23.5945 12.1753C22.5828 10.9541 21.2107 10.268 19.78 10.268ZM19.78 27.6333C17.3955 27.6333 15.1086 26.4899 13.4225 24.4545C11.7363 22.4191 10.7891 19.6585 10.7891 16.78C10.7891 13.9015 11.7363 11.1409 13.4225 9.10553C15.1086 7.07014 17.3955 5.92667 19.78 5.92667C22.1645 5.92667 24.4514 7.07014 26.1375 9.10553C27.8237 11.1409 28.7709 13.9015 28.7709 16.78C28.7709 19.6585 27.8237 22.4191 26.1375 24.4545C24.4514 26.4899 22.1645 27.6333 19.78 27.6333ZM19.78 0.5C10.7891 0.5 3.11085 7.25077 0 16.78C3.11085 26.3092 10.7891 33.06 19.78 33.06C28.7709 33.06 36.4491 26.3092 39.56 16.78C36.4491 7.25077 28.7709 0.5 19.78 0.5Z" fill="#828282"/>
</svg>
