<svg width="26" height="24" viewBox="0 0 26 24" fill="none" xmlns="http://www.w3.org/2000/svg">
<path d="M20.6051 5.79091H5.53505V0.767578H20.6051V5.79091ZM20.6051 12.698C20.9609 12.698 21.2593 12.5774 21.5005 12.3363C21.7416 12.0952 21.8617 11.7971 21.8609 11.4422C21.86 11.0872 21.7395 10.7891 21.4992 10.548C21.2589 10.3069 20.9609 10.1863 20.6051 10.1863C20.2492 10.1863 19.9512 10.3069 19.7109 10.548C19.4706 10.7891 19.3501 11.0872 19.3492 11.4422C19.3484 11.7971 19.4689 12.0956 19.7109 12.3376C19.9529 12.5795 20.2509 12.6997 20.6051 12.698ZM18.0934 20.8609V15.8376H8.04672V20.8609H18.0934ZM20.6051 23.3726H5.53505V18.3492H0.511719V10.8142C0.511719 9.74679 0.878003 8.85221 1.61057 8.13053C2.34314 7.40884 3.23269 7.04758 4.27922 7.04674H21.8609C22.9283 7.04674 23.8233 7.40801 24.5459 8.13053C25.2684 8.85305 25.6292 9.74762 25.6284 10.8142V18.3492H20.6051V23.3726Z" fill="#3F22FF"/>
</svg>
