<svg width="29" height="29" viewBox="0 0 29 29" fill="none" xmlns="http://www.w3.org/2000/svg">
<path fill-rule="evenodd" clip-rule="evenodd" d="M9.58194 8.38421C9.58194 7.11357 10.0867 5.89497 10.9852 4.9965C11.8837 4.09802 13.1023 3.59326 14.3729 3.59326C15.6435 3.59326 16.8621 4.09802 17.7606 4.9965C18.6591 5.89497 19.1638 7.11357 19.1638 8.38421C19.1638 9.65484 18.6591 10.8734 17.7606 11.7719C16.8621 12.6704 15.6435 13.1752 14.3729 13.1752C13.1023 13.1752 11.8837 12.6704 10.9852 11.7719C10.0867 10.8734 9.58194 9.65484 9.58194 8.38421ZM9.58194 15.5706C7.99365 15.5706 6.4704 16.2016 5.34731 17.3247C4.22421 18.4478 3.59326 19.971 3.59326 21.5593C3.59326 22.5123 3.97183 23.4262 4.64569 24.1001C5.31955 24.7739 6.23349 25.1525 7.18647 25.1525H21.5593C22.5123 25.1525 23.4262 24.7739 24.1001 24.1001C24.7739 23.4262 25.1525 22.5123 25.1525 21.5593C25.1525 19.971 24.5216 18.4478 23.3985 17.3247C22.2754 16.2016 20.7521 15.5706 19.1638 15.5706H9.58194Z" fill="white"/>
</svg>
