<svg width="29" height="29" viewBox="0 0 29 29" fill="none" xmlns="http://www.w3.org/2000/svg">
<path d="M17.9688 16.7708C14.7704 16.7708 8.3855 18.364 8.3855 21.5625V23.9583H27.5522V21.5625C27.5522 18.364 21.1673 16.7708 17.9688 16.7708ZM7.18758 11.9791V8.38538H4.79175V11.9791H1.198V14.375H4.79175V17.9687H7.18758V14.375H10.7813V11.9791M17.9688 14.375C19.2397 14.375 20.4584 13.8701 21.357 12.9715C22.2557 12.0729 22.7605 10.8541 22.7605 9.58329C22.7605 8.31246 22.2557 7.09368 21.357 6.19507C20.4584 5.29646 19.2397 4.79163 17.9688 4.79163C16.698 4.79163 15.4792 5.29646 14.5806 6.19507C13.682 7.09368 13.1772 8.31246 13.1772 9.58329C13.1772 10.8541 13.682 12.0729 14.5806 12.9715C15.4792 13.8701 16.698 14.375 17.9688 14.375Z" fill="white"/>
</svg>
