<svg width="46" height="30" viewBox="0 0 46 30" fill="none" xmlns="http://www.w3.org/2000/svg">
<path d="M31.3333 12.9165C34.7916 12.9165 37.5624 10.1248 37.5624 6.6665C37.5624 3.20817 34.7916 0.416504 31.3333 0.416504C27.8749 0.416504 25.0833 3.20817 25.0833 6.6665C25.0833 10.1248 27.8749 12.9165 31.3333 12.9165ZM14.6666 12.9165C18.1249 12.9165 20.8958 10.1248 20.8958 6.6665C20.8958 3.20817 18.1249 0.416504 14.6666 0.416504C11.2083 0.416504 8.41658 3.20817 8.41658 6.6665C8.41658 10.1248 11.2083 12.9165 14.6666 12.9165ZM14.6666 17.0832C9.81242 17.0832 0.083252 19.5207 0.083252 24.3748V29.5832H29.2499V24.3748C29.2499 19.5207 19.5208 17.0832 14.6666 17.0832ZM31.3333 17.0832C30.7291 17.0832 30.0416 17.1248 29.3124 17.1873C31.7291 18.9373 33.4166 21.2915 33.4166 24.3748V29.5832H45.9166V24.3748C45.9166 19.5207 36.1874 17.0832 31.3333 17.0832Z" fill="#1B4A9A"/>
</svg>
