<svg width="25" height="25" viewBox="0 0 25 25" fill="none" xmlns="http://www.w3.org/2000/svg">
<path d="M3.125 25C2.26562 25 1.53021 24.6859 0.918749 24.0578C0.307291 23.4296 0.00104167 22.6736 0 21.7897V18.5795C0 18.1247 0.15 17.7437 0.45 17.4366C0.75 17.1295 1.12083 16.9754 1.5625 16.9743C2.00416 16.9733 2.37552 17.1273 2.67656 17.4366C2.9776 17.7459 3.12708 18.1268 3.125 18.5795V21.7897H21.875V18.5795C21.875 18.1247 22.025 17.7437 22.325 17.4366C22.625 17.1295 22.9958 16.9754 23.4375 16.9743C23.8791 16.9733 24.2505 17.1273 24.5515 17.4366C24.8526 17.7459 25.0021 18.1268 25 18.5795V21.7897C25 22.6726 24.6943 23.4286 24.0828 24.0578C23.4713 24.687 22.7354 25.0011 21.875 25H3.125ZM10.9375 5.49761L8.00781 8.50724C7.69531 8.82827 7.32447 8.98236 6.89531 8.96952C6.46614 8.95668 6.09479 8.78921 5.78124 8.46711C5.49479 8.14608 5.34479 7.77155 5.33125 7.34352C5.3177 6.91548 5.4677 6.54095 5.78124 6.21992L11.4062 0.441436C11.5625 0.280923 11.7318 0.167493 11.9141 0.101148C12.0963 0.0348022 12.2917 0.00109478 12.5 2.46947e-05C12.7083 -0.0010454 12.9036 0.032662 13.0859 0.101148C13.2682 0.169633 13.4375 0.283063 13.5937 0.441436L19.2187 6.21992C19.5312 6.54095 19.6812 6.91548 19.6687 7.34352C19.6562 7.77155 19.5062 8.14608 19.2187 8.46711C18.9062 8.78814 18.5354 8.95561 18.1062 8.96952C17.6771 8.98343 17.3057 8.82934 16.9922 8.50724L14.0625 5.49761V16.9743C14.0625 17.4291 13.9125 17.8106 13.6125 18.1188C13.3125 18.427 12.9417 18.5805 12.5 18.5795C12.0583 18.5784 11.6875 18.4243 11.3875 18.1172C11.0875 17.8101 10.9375 17.4291 10.9375 16.9743V5.49761Z" fill="#4F46E5"/>
</svg>
