<svg width="29" height="29" viewBox="0 0 29 29" fill="none" xmlns="http://www.w3.org/2000/svg">
<path d="M25.1525 20.3615V9.58191H8.38417V20.3615H25.1525ZM25.1525 3.59323C25.7878 3.59323 26.3971 3.84561 26.8463 4.29484C27.2956 4.74408 27.5479 5.35338 27.5479 5.9887V20.3615C27.5479 20.9968 27.2956 21.6061 26.8463 22.0554C26.3971 22.5046 25.7878 22.757 25.1525 22.757H8.38417C7.74885 22.757 7.13955 22.5046 6.69032 22.0554C6.24108 21.6061 5.9887 20.9968 5.9887 20.3615V5.9887C5.9887 5.35338 6.24108 4.74408 6.69032 4.29484C7.13955 3.84561 7.74885 3.59323 8.38417 3.59323H9.58191V1.19775H11.9774V3.59323H21.5593V1.19775H23.9547V3.59323H25.1525ZM3.59323 25.1525H20.3615V27.5479H3.59323C2.95791 27.5479 2.34861 27.2956 1.89937 26.8463C1.45013 26.3971 1.19775 25.7878 1.19775 25.1525V10.7796H3.59323V25.1525ZM22.757 17.9661H17.9661V13.1751H22.757V17.9661Z" fill="white"/>
</svg>
